<svg data-v-47c81215="" width="144" height="144" viewBox="0 0 144 144" fill="none" xmlns="http://www.w3.org/2000/svg" class="mb-2"><g clip-path="url(#clip0_13575_12523)"><path d="M96 84H60V120H96V84Z" fill="#47338F"></path><path d="M48 84H12V120H48V84Z" fill="#1B0273"></path><path d="M82.5 84H73.5V93H82.5V84Z" fill="#7363AB"></path><path d="M34.5 84H25.5V93H34.5V84Z" fill="#7363AB"></path><path d="M132 84H96V120H132V84Z" fill="#100145"></path><path d="M118.5 84H109.5V93H118.5V84Z" fill="#47338F"></path><path d="M96 48H60V84H96V48Z" fill="#9F94C7"></path><path d="M82.5 48H73.5V57H82.5V48Z" fill="#B5ACD5"></path><path d="M114 24H78V48H114V24Z" fill="#CBC4E3"></path><path d="M100.5 24H91.5V33H100.5V24Z" fill="#E1DDF1"></path><path d="M132 48H96V84H132V48Z" fill="#7363AB"></path><path d="M118.5 48H109.5V57H118.5V48Z" fill="#9F94C7"></path></g><defs><clipPath id="clip0_13575_12523"><rect width="144" height="144" fill="white"></rect></clipPath></defs></svg>