<svg width="33" height="35" viewBox="0 0 33 35" fill="none" xmlns="http://www.w3.org/2000/svg">
<path d="M22.5 28.6163C23.7408 28.6163 24.7918 28.1903 25.6529 27.3383C26.514 26.4864 26.9446 25.4308 26.9446 24.1717C26.9446 22.9308 26.514 21.8799 25.6529 21.0188C24.7918 20.1576 23.7408 19.7271 22.5 19.7271C21.2408 19.7271 20.1853 20.1576 19.3333 21.0188C18.4814 21.8799 18.0554 22.9308 18.0554 24.1717C18.0554 25.4308 18.4814 26.4864 19.3333 27.3383C20.1853 28.1903 21.2408 28.6163 22.5 28.6163ZM31 34.6163L26.5279 30.1854C25.9446 30.5651 25.3126 30.8615 24.6321 31.0746C23.9515 31.2874 23.2408 31.3938 22.5 31.3938C20.4908 31.3938 18.7849 30.6924 17.3821 29.2896C15.9793 27.8868 15.2779 26.1808 15.2779 24.1717C15.2779 22.1808 15.9793 20.4795 17.3821 19.0675C18.7849 17.6556 20.4908 16.9496 22.5 16.9496C24.4908 16.9496 26.1922 17.6556 27.6042 19.0675C29.0161 20.4795 29.7221 22.1808 29.7221 24.1717C29.7221 24.9403 29.6088 25.6649 29.3821 26.3454C29.1551 27.026 28.8518 27.6579 28.4721 28.2413L32.9167 32.6717L31 34.6163ZM0 33.3383V0.00500488H17.25L26.6667 9.42167V15.0883C26 14.792 25.3194 14.5651 24.625 14.4079C23.9306 14.2504 23.2222 14.1717 22.5 14.1717C21.2036 14.1717 19.9929 14.3893 18.8679 14.8246C17.7429 15.2596 16.7499 15.8753 15.8888 16.6717H6.63875V19.4496H13.7221C13.3704 20.0699 13.095 20.7318 12.8958 21.4354C12.6967 22.1393 12.5693 22.8663 12.5138 23.6163H6.63875V26.3938H12.7363C13.0974 27.9679 13.7964 29.3731 14.8333 30.6092C15.8703 31.8453 17.1526 32.755 18.6804 33.3383H0ZM15.8613 10.7271H23.8888L15.8613 2.78292V10.7271Z" fill="#1B0273"/>
</svg>
